<svg width="96" height="96" viewBox="0 0 96 96" fill="none" xmlns="http://www.w3.org/2000/svg">
<rect x="2" y="2" width="92" height="92" rx="2" fill="#0A9418" fill-opacity="0.75" stroke="#06600F" stroke-width="4"/>
<path d="M45.4596 42.731C45.4596 43.9386 45.1576 45.0096 44.5538 45.9438C43.95 46.8781 43.1182 47.6243 42.0587 48.1826C43.2664 48.7637 44.2234 49.5669 44.9298 50.5923C45.6362 51.6063 45.9893 52.8026 45.9893 54.1812C45.9893 56.3914 45.2374 58.1403 43.7335 59.4277C42.2296 60.7038 40.1845 61.3418 37.5982 61.3418C35.012 61.3418 32.9612 60.6981 31.4459 59.4106C29.9306 58.1232 29.1729 56.38 29.1729 54.1812C29.1729 52.8026 29.5261 51.6006 30.2325 50.5752C30.9389 49.5498 31.8902 48.7523 33.0865 48.1826C32.0269 47.6243 31.1952 46.8781 30.5914 45.9438C29.9989 45.0096 29.7027 43.9386 29.7027 42.731C29.7027 40.6118 30.4091 38.9256 31.8219 37.6724C33.2346 36.4077 35.1544 35.7754 37.5811 35.7754C39.9965 35.7754 41.9106 36.402 43.3233 37.6553C44.7475 38.8971 45.4596 40.589 45.4596 42.731ZM41.0333 53.8223C41.0333 52.7399 40.72 51.874 40.0933 51.2246C39.4667 50.5752 38.6236 50.2505 37.5641 50.2505C36.5159 50.2505 35.6785 50.5752 35.0518 51.2246C34.4252 51.8626 34.1119 52.7285 34.1119 53.8223C34.1119 54.8818 34.4195 55.7363 35.0348 56.3857C35.65 57.0352 36.5045 57.3599 37.5982 57.3599C38.6692 57.3599 39.5066 57.0465 40.1104 56.4199C40.7257 55.7933 41.0333 54.9274 41.0333 53.8223ZM40.5206 42.9702C40.5206 42.0018 40.2642 41.2271 39.7516 40.646C39.2389 40.0535 38.5154 39.7573 37.5811 39.7573C36.6583 39.7573 35.9405 40.0422 35.4278 40.6118C34.9151 41.1815 34.6588 41.9676 34.6588 42.9702C34.6588 43.9614 34.9151 44.759 35.4278 45.3628C35.9405 45.9666 36.664 46.2686 37.5982 46.2686C38.5325 46.2686 39.2502 45.9666 39.7516 45.3628C40.2642 44.759 40.5206 43.9614 40.5206 42.9702ZM65.5572 42.731C65.5572 43.9386 65.2553 45.0096 64.6515 45.9438C64.0476 46.8781 63.2159 47.6243 62.1563 48.1826C63.364 48.7637 64.321 49.5669 65.0274 50.5923C65.7338 51.6063 66.087 52.8026 66.087 54.1812C66.087 56.3914 65.335 58.1403 63.8311 59.4277C62.3272 60.7038 60.2821 61.3418 57.6959 61.3418C55.1096 61.3418 53.0588 60.6981 51.5435 59.4106C50.0282 58.1232 49.2706 56.38 49.2706 54.1812C49.2706 52.8026 49.6238 51.6006 50.3302 50.5752C51.0365 49.5498 51.9879 48.7523 53.1842 48.1826C52.1246 47.6243 51.2929 46.8781 50.6891 45.9438C50.0966 45.0096 49.8004 43.9386 49.8004 42.731C49.8004 40.6118 50.5068 38.9256 51.9195 37.6724C53.3323 36.4077 55.252 35.7754 57.6788 35.7754C60.0942 35.7754 62.0082 36.402 63.421 37.6553C64.8451 38.8971 65.5572 40.589 65.5572 42.731ZM61.1309 53.8223C61.1309 52.7399 60.8176 51.874 60.191 51.2246C59.5644 50.5752 58.7213 50.2505 57.6617 50.2505C56.6135 50.2505 55.7761 50.5752 55.1495 51.2246C54.5229 51.8626 54.2096 52.7285 54.2096 53.8223C54.2096 54.8818 54.5172 55.7363 55.1324 56.3857C55.7476 57.0352 56.6021 57.3599 57.6959 57.3599C58.7669 57.3599 59.6043 57.0465 60.2081 56.4199C60.8233 55.7933 61.1309 54.9274 61.1309 53.8223ZM60.6182 42.9702C60.6182 42.0018 60.3619 41.2271 59.8492 40.646C59.3365 40.0535 58.613 39.7573 57.6788 39.7573C56.7559 39.7573 56.0382 40.0422 55.5255 40.6118C55.0128 41.1815 54.7564 41.9676 54.7564 42.9702C54.7564 43.9614 55.0128 44.759 55.5255 45.3628C56.0382 45.9666 56.7616 46.2686 57.6959 46.2686C58.6301 46.2686 59.3479 45.9666 59.8492 45.3628C60.3619 44.759 60.6182 43.9614 60.6182 42.9702Z" fill="white"/>
</svg>
